<mxfile host="app.diagrams.net" modified="2023-12-03T03:03:58.347Z" agent="Mozilla/5.0 (Windows NT 10.0; Win64; x64) AppleWebKit/537.36 (KHTML, like Gecko) Chrome/119.0.0.0 Safari/537.36" etag="89Ul15Y1GEK2PfmfD95-" version="22.1.5" type="github">
  <diagram name="Page-1" id="-or9IXXFxJkR2-hr-Hel">
    <mxGraphModel dx="2314" dy="1150" grid="1" gridSize="10" guides="1" tooltips="0" connect="1" arrows="1" fold="1" page="1" pageScale="1" pageWidth="850" pageHeight="1100" math="0" shadow="0">
      <root>
        <mxCell id="0" />
        <mxCell id="1" parent="0" />
        <mxCell id="9qI0Hi1YXG1QtXbabamx-9" value="ToDoList" style="swimlane;fontStyle=1;align=center;verticalAlign=top;childLayout=stackLayout;horizontal=1;startSize=26;horizontalStack=0;resizeParent=1;resizeParentMax=0;resizeLast=0;collapsible=1;marginBottom=0;whiteSpace=wrap;html=1;" parent="1" vertex="1">
          <mxGeometry x="297" y="191" width="200" height="200" as="geometry" />
        </mxCell>
        <mxCell id="9qI0Hi1YXG1QtXbabamx-10" value="- head: Node&lt;br&gt;- taskCount: int" style="text;strokeColor=none;fillColor=none;align=left;verticalAlign=top;spacingLeft=4;spacingRight=4;overflow=hidden;rotatable=0;points=[[0,0.5],[1,0.5]];portConstraint=eastwest;whiteSpace=wrap;html=1;" parent="9qI0Hi1YXG1QtXbabamx-9" vertex="1">
          <mxGeometry y="26" width="200" height="44" as="geometry" />
        </mxCell>
        <mxCell id="9qI0Hi1YXG1QtXbabamx-11" value="" style="line;strokeWidth=1;fillColor=none;align=left;verticalAlign=middle;spacingTop=-1;spacingLeft=3;spacingRight=3;rotatable=0;labelPosition=right;points=[];portConstraint=eastwest;strokeColor=inherit;" parent="9qI0Hi1YXG1QtXbabamx-9" vertex="1">
          <mxGeometry y="70" width="200" height="8" as="geometry" />
        </mxCell>
        <mxCell id="9qI0Hi1YXG1QtXbabamx-12" value="+ addTask(Task)&lt;br&gt;+ showAllTasks()&lt;br&gt;+ markTaskAsCompleted(String)&lt;br&gt;+ filterTasksByStatus(boolean)&lt;br&gt;+ containsTask(Task): Boolean&lt;br&gt;+ getTasksCount(): Integer&lt;br&gt;+ sortTasks(String)" style="text;strokeColor=none;fillColor=none;align=left;verticalAlign=top;spacingLeft=4;spacingRight=4;overflow=hidden;rotatable=0;points=[[0,0.5],[1,0.5]];portConstraint=eastwest;whiteSpace=wrap;html=1;" parent="9qI0Hi1YXG1QtXbabamx-9" vertex="1">
          <mxGeometry y="78" width="200" height="122" as="geometry" />
        </mxCell>
        <mxCell id="9qI0Hi1YXG1QtXbabamx-13" value="Node" style="swimlane;fontStyle=1;align=center;verticalAlign=top;childLayout=stackLayout;horizontal=1;startSize=26;horizontalStack=0;resizeParent=1;resizeParentMax=0;resizeLast=0;collapsible=1;marginBottom=0;whiteSpace=wrap;html=1;" parent="1" vertex="1">
          <mxGeometry x="50" y="650" width="160" height="130" as="geometry">
            <mxRectangle x="345" y="570" width="70" height="30" as="alternateBounds" />
          </mxGeometry>
        </mxCell>
        <mxCell id="9qI0Hi1YXG1QtXbabamx-14" value="- task: Task&lt;br&gt;-next: Node" style="text;strokeColor=none;fillColor=none;align=left;verticalAlign=top;spacingLeft=4;spacingRight=4;overflow=hidden;rotatable=0;points=[[0,0.5],[1,0.5]];portConstraint=eastwest;whiteSpace=wrap;html=1;" parent="9qI0Hi1YXG1QtXbabamx-13" vertex="1">
          <mxGeometry y="26" width="160" height="44" as="geometry" />
        </mxCell>
        <mxCell id="9qI0Hi1YXG1QtXbabamx-15" value="" style="line;strokeWidth=1;fillColor=none;align=left;verticalAlign=middle;spacingTop=-1;spacingLeft=3;spacingRight=3;rotatable=0;labelPosition=right;points=[];portConstraint=eastwest;strokeColor=inherit;" parent="9qI0Hi1YXG1QtXbabamx-13" vertex="1">
          <mxGeometry y="70" width="160" height="8" as="geometry" />
        </mxCell>
        <mxCell id="9qI0Hi1YXG1QtXbabamx-16" value="+ Node(Task)" style="text;strokeColor=none;fillColor=none;align=left;verticalAlign=top;spacingLeft=4;spacingRight=4;overflow=hidden;rotatable=0;points=[[0,0.5],[1,0.5]];portConstraint=eastwest;whiteSpace=wrap;html=1;" parent="9qI0Hi1YXG1QtXbabamx-13" vertex="1">
          <mxGeometry y="78" width="160" height="52" as="geometry" />
        </mxCell>
        <mxCell id="9qI0Hi1YXG1QtXbabamx-83" value="" style="endArrow=open;startArrow=none;endFill=0;startFill=0;endSize=8;html=1;verticalAlign=bottom;labelBackgroundColor=none;strokeWidth=1;rounded=0;exitX=0;exitY=0.5;exitDx=0;exitDy=0;entryX=0.5;entryY=0;entryDx=0;entryDy=0;" parent="9qI0Hi1YXG1QtXbabamx-13" source="9qI0Hi1YXG1QtXbabamx-14" target="9qI0Hi1YXG1QtXbabamx-13" edge="1">
          <mxGeometry width="160" relative="1" as="geometry">
            <mxPoint x="170" y="114" as="sourcePoint" />
            <mxPoint x="260" y="114" as="targetPoint" />
            <Array as="points">
              <mxPoint x="-30" y="48" />
              <mxPoint x="-30" y="-50" />
              <mxPoint x="80" y="-50" />
            </Array>
          </mxGeometry>
        </mxCell>
        <mxCell id="9qI0Hi1YXG1QtXbabamx-17" value="Task" style="swimlane;fontStyle=1;align=center;verticalAlign=top;childLayout=stackLayout;horizontal=1;startSize=26;horizontalStack=0;resizeParent=1;resizeParentMax=0;resizeLast=0;collapsible=1;marginBottom=0;whiteSpace=wrap;html=1;" parent="1" vertex="1">
          <mxGeometry x="300" y="580" width="190" height="250" as="geometry" />
        </mxCell>
        <mxCell id="9qI0Hi1YXG1QtXbabamx-18" value="- description: String&lt;br&gt;- dueDate: String&lt;br&gt;- completed: boolean" style="text;strokeColor=none;fillColor=none;align=left;verticalAlign=top;spacingLeft=4;spacingRight=4;overflow=hidden;rotatable=0;points=[[0,0.5],[1,0.5]];portConstraint=eastwest;whiteSpace=wrap;html=1;" parent="9qI0Hi1YXG1QtXbabamx-17" vertex="1">
          <mxGeometry y="26" width="190" height="64" as="geometry" />
        </mxCell>
        <mxCell id="9qI0Hi1YXG1QtXbabamx-19" value="" style="line;strokeWidth=1;fillColor=none;align=left;verticalAlign=middle;spacingTop=-1;spacingLeft=3;spacingRight=3;rotatable=0;labelPosition=right;points=[];portConstraint=eastwest;strokeColor=inherit;" parent="9qI0Hi1YXG1QtXbabamx-17" vertex="1">
          <mxGeometry y="90" width="190" height="8" as="geometry" />
        </mxCell>
        <mxCell id="9qI0Hi1YXG1QtXbabamx-20" value="+ Task()&lt;br&gt;+ Task(String, String)&lt;br&gt;+ getDescription(): String&lt;br&gt;+ getDueDate(): String&lt;br&gt;+ isCompleted(): Boolean&lt;br&gt;+ markCompleted()&lt;br&gt;+ equals(Object): boolean&lt;br&gt;+ toString(): String&lt;br&gt;+ compareTo(Task)" style="text;strokeColor=none;fillColor=none;align=left;verticalAlign=top;spacingLeft=4;spacingRight=4;overflow=hidden;rotatable=0;points=[[0,0.5],[1,0.5]];portConstraint=eastwest;whiteSpace=wrap;html=1;" parent="9qI0Hi1YXG1QtXbabamx-17" vertex="1">
          <mxGeometry y="98" width="190" height="152" as="geometry" />
        </mxCell>
        <mxCell id="9qI0Hi1YXG1QtXbabamx-21" value="DriverMain" style="swimlane;fontStyle=1;align=center;verticalAlign=top;childLayout=stackLayout;horizontal=1;startSize=26;horizontalStack=0;resizeParent=1;resizeParentMax=0;resizeLast=0;collapsible=1;marginBottom=0;whiteSpace=wrap;html=1;" parent="1" vertex="1">
          <mxGeometry x="630" y="32" width="160" height="70" as="geometry" />
        </mxCell>
        <mxCell id="9qI0Hi1YXG1QtXbabamx-23" value="" style="line;strokeWidth=1;fillColor=none;align=left;verticalAlign=middle;spacingTop=-1;spacingLeft=3;spacingRight=3;rotatable=0;labelPosition=right;points=[];portConstraint=eastwest;strokeColor=inherit;" parent="9qI0Hi1YXG1QtXbabamx-21" vertex="1">
          <mxGeometry y="26" width="160" height="8" as="geometry" />
        </mxCell>
        <mxCell id="9qI0Hi1YXG1QtXbabamx-24" value="&lt;u&gt;+ main(String[])&lt;/u&gt;" style="text;strokeColor=none;fillColor=none;align=left;verticalAlign=top;spacingLeft=4;spacingRight=4;overflow=hidden;rotatable=0;points=[[0,0.5],[1,0.5]];portConstraint=eastwest;whiteSpace=wrap;html=1;" parent="9qI0Hi1YXG1QtXbabamx-21" vertex="1">
          <mxGeometry y="34" width="160" height="36" as="geometry" />
        </mxCell>
        <mxCell id="9qI0Hi1YXG1QtXbabamx-25" value="PersonalTask" style="swimlane;fontStyle=1;align=center;verticalAlign=top;childLayout=stackLayout;horizontal=1;startSize=26;horizontalStack=0;resizeParent=1;resizeParentMax=0;resizeLast=0;collapsible=1;marginBottom=0;whiteSpace=wrap;html=1;" parent="1" vertex="1">
          <mxGeometry x="600" y="510" width="220" height="108" as="geometry" />
        </mxCell>
        <mxCell id="9qI0Hi1YXG1QtXbabamx-26" value="- reminderDate: String" style="text;strokeColor=none;fillColor=none;align=left;verticalAlign=top;spacingLeft=4;spacingRight=4;overflow=hidden;rotatable=0;points=[[0,0.5],[1,0.5]];portConstraint=eastwest;whiteSpace=wrap;html=1;" parent="9qI0Hi1YXG1QtXbabamx-25" vertex="1">
          <mxGeometry y="26" width="220" height="24" as="geometry" />
        </mxCell>
        <mxCell id="9qI0Hi1YXG1QtXbabamx-27" value="" style="line;strokeWidth=1;fillColor=none;align=left;verticalAlign=middle;spacingTop=-1;spacingLeft=3;spacingRight=3;rotatable=0;labelPosition=right;points=[];portConstraint=eastwest;strokeColor=inherit;" parent="9qI0Hi1YXG1QtXbabamx-25" vertex="1">
          <mxGeometry y="50" width="220" height="8" as="geometry" />
        </mxCell>
        <mxCell id="9qI0Hi1YXG1QtXbabamx-28" value="+ PersonalTask(String, String. String)&lt;br&gt;+ toString(): String" style="text;strokeColor=none;fillColor=none;align=left;verticalAlign=top;spacingLeft=4;spacingRight=4;overflow=hidden;rotatable=0;points=[[0,0.5],[1,0.5]];portConstraint=eastwest;whiteSpace=wrap;html=1;" parent="9qI0Hi1YXG1QtXbabamx-25" vertex="1">
          <mxGeometry y="58" width="220" height="50" as="geometry" />
        </mxCell>
        <mxCell id="9qI0Hi1YXG1QtXbabamx-29" value="WorkTask" style="swimlane;fontStyle=1;align=center;verticalAlign=top;childLayout=stackLayout;horizontal=1;startSize=26;horizontalStack=0;resizeParent=1;resizeParentMax=0;resizeLast=0;collapsible=1;marginBottom=0;whiteSpace=wrap;html=1;" parent="1" vertex="1">
          <mxGeometry x="600" y="670" width="220" height="110" as="geometry" />
        </mxCell>
        <mxCell id="9qI0Hi1YXG1QtXbabamx-30" value="- priorityLevel: int" style="text;strokeColor=none;fillColor=none;align=left;verticalAlign=top;spacingLeft=4;spacingRight=4;overflow=hidden;rotatable=0;points=[[0,0.5],[1,0.5]];portConstraint=eastwest;whiteSpace=wrap;html=1;" parent="9qI0Hi1YXG1QtXbabamx-29" vertex="1">
          <mxGeometry y="26" width="220" height="26" as="geometry" />
        </mxCell>
        <mxCell id="9qI0Hi1YXG1QtXbabamx-31" value="" style="line;strokeWidth=1;fillColor=none;align=left;verticalAlign=middle;spacingTop=-1;spacingLeft=3;spacingRight=3;rotatable=0;labelPosition=right;points=[];portConstraint=eastwest;strokeColor=inherit;" parent="9qI0Hi1YXG1QtXbabamx-29" vertex="1">
          <mxGeometry y="52" width="220" height="8" as="geometry" />
        </mxCell>
        <mxCell id="9qI0Hi1YXG1QtXbabamx-32" value="+ WorkTask(String, String, int)&lt;br&gt;+ toString(): String" style="text;strokeColor=none;fillColor=none;align=left;verticalAlign=top;spacingLeft=4;spacingRight=4;overflow=hidden;rotatable=0;points=[[0,0.5],[1,0.5]];portConstraint=eastwest;whiteSpace=wrap;html=1;" parent="9qI0Hi1YXG1QtXbabamx-29" vertex="1">
          <mxGeometry y="60" width="220" height="50" as="geometry" />
        </mxCell>
        <mxCell id="9qI0Hi1YXG1QtXbabamx-33" value="ShoppingTask" style="swimlane;fontStyle=1;align=center;verticalAlign=top;childLayout=stackLayout;horizontal=1;startSize=26;horizontalStack=0;resizeParent=1;resizeParentMax=0;resizeLast=0;collapsible=1;marginBottom=0;whiteSpace=wrap;html=1;" parent="1" vertex="1">
          <mxGeometry x="600" y="838" width="220" height="110" as="geometry" />
        </mxCell>
        <mxCell id="9qI0Hi1YXG1QtXbabamx-34" value="- shoppingList: String" style="text;strokeColor=none;fillColor=none;align=left;verticalAlign=top;spacingLeft=4;spacingRight=4;overflow=hidden;rotatable=0;points=[[0,0.5],[1,0.5]];portConstraint=eastwest;whiteSpace=wrap;html=1;" parent="9qI0Hi1YXG1QtXbabamx-33" vertex="1">
          <mxGeometry y="26" width="220" height="26" as="geometry" />
        </mxCell>
        <mxCell id="9qI0Hi1YXG1QtXbabamx-35" value="" style="line;strokeWidth=1;fillColor=none;align=left;verticalAlign=middle;spacingTop=-1;spacingLeft=3;spacingRight=3;rotatable=0;labelPosition=right;points=[];portConstraint=eastwest;strokeColor=inherit;" parent="9qI0Hi1YXG1QtXbabamx-33" vertex="1">
          <mxGeometry y="52" width="220" height="8" as="geometry" />
        </mxCell>
        <mxCell id="9qI0Hi1YXG1QtXbabamx-36" value="+ ShoppingTask(String, String, String)&lt;br&gt;+ toString(): String" style="text;strokeColor=none;fillColor=none;align=left;verticalAlign=top;spacingLeft=4;spacingRight=4;overflow=hidden;rotatable=0;points=[[0,0.5],[1,0.5]];portConstraint=eastwest;whiteSpace=wrap;html=1;" parent="9qI0Hi1YXG1QtXbabamx-33" vertex="1">
          <mxGeometry y="60" width="220" height="50" as="geometry" />
        </mxCell>
        <mxCell id="9qI0Hi1YXG1QtXbabamx-37" value="ToDoListApp" style="swimlane;fontStyle=1;align=center;verticalAlign=top;childLayout=stackLayout;horizontal=1;startSize=26;horizontalStack=0;resizeParent=1;resizeParentMax=0;resizeLast=0;collapsible=1;marginBottom=0;whiteSpace=wrap;html=1;" parent="1" vertex="1">
          <mxGeometry x="600" y="174" width="220" height="250" as="geometry" />
        </mxCell>
        <mxCell id="9qI0Hi1YXG1QtXbabamx-38" value="&lt;u&gt;- toDoList: ToDoList&lt;/u&gt;" style="text;strokeColor=none;fillColor=none;align=left;verticalAlign=top;spacingLeft=4;spacingRight=4;overflow=hidden;rotatable=0;points=[[0,0.5],[1,0.5]];portConstraint=eastwest;whiteSpace=wrap;html=1;" parent="9qI0Hi1YXG1QtXbabamx-37" vertex="1">
          <mxGeometry y="26" width="220" height="26" as="geometry" />
        </mxCell>
        <mxCell id="9qI0Hi1YXG1QtXbabamx-39" value="" style="line;strokeWidth=1;fillColor=none;align=left;verticalAlign=middle;spacingTop=-1;spacingLeft=3;spacingRight=3;rotatable=0;labelPosition=right;points=[];portConstraint=eastwest;strokeColor=inherit;" parent="9qI0Hi1YXG1QtXbabamx-37" vertex="1">
          <mxGeometry y="52" width="220" height="8" as="geometry" />
        </mxCell>
        <mxCell id="9qI0Hi1YXG1QtXbabamx-40" value="&lt;div&gt;&lt;u&gt;+ start()&lt;/u&gt;&lt;/div&gt;&lt;div&gt;&lt;u&gt;- totalNumberOfTasks()&lt;/u&gt;&lt;/div&gt;&lt;div&gt;&lt;u&gt;- addTask(Scanner)&lt;/u&gt;&lt;/div&gt;&lt;div&gt;&lt;u&gt;- addTask2(Scanner)&lt;/u&gt;&lt;/div&gt;&lt;div&gt;&lt;u&gt;- addTasks(Scanner, int)&lt;/u&gt;&lt;/div&gt;&lt;div&gt;&lt;u&gt;- showAllTasks()&lt;/u&gt;&lt;/div&gt;&lt;div&gt;&lt;u&gt;- markTaskAsCompleted(Scanner)&lt;/u&gt;&lt;/div&gt;&lt;div&gt;&lt;u&gt;- filterTasksByStatus(Scanner)&lt;/u&gt;&lt;/div&gt;&lt;div&gt;&lt;u&gt;+ sortTasks(Scanner)&lt;/u&gt;&lt;/div&gt;&lt;div&gt;&lt;u&gt;- loadDefaultTasks()&lt;/u&gt;&lt;/div&gt;&lt;div&gt;&lt;u&gt;- loadDefaultTasks2()&lt;/u&gt;&lt;/div&gt;" style="text;strokeColor=none;fillColor=none;align=left;verticalAlign=top;spacingLeft=4;spacingRight=4;overflow=hidden;rotatable=0;points=[[0,0.5],[1,0.5]];portConstraint=eastwest;whiteSpace=wrap;html=1;" parent="9qI0Hi1YXG1QtXbabamx-37" vertex="1">
          <mxGeometry y="60" width="220" height="190" as="geometry" />
        </mxCell>
        <mxCell id="9qI0Hi1YXG1QtXbabamx-54" value="«interface»&lt;br&gt;&lt;b&gt;Comparable&lt;/b&gt;" style="html=1;whiteSpace=wrap;" parent="1" vertex="1">
          <mxGeometry x="340" y="920" width="110" height="50" as="geometry" />
        </mxCell>
        <mxCell id="9qI0Hi1YXG1QtXbabamx-59" value="" style="endArrow=circlePlus;startArrow=none;endFill=0;startFill=0;endSize=8;html=1;labelBackgroundColor=none;rounded=0;" parent="1" source="9qI0Hi1YXG1QtXbabamx-12" target="9qI0Hi1YXG1QtXbabamx-14" edge="1">
          <mxGeometry width="160" relative="1" as="geometry">
            <mxPoint x="390" y="500" as="sourcePoint" />
            <mxPoint x="120" y="580" as="targetPoint" />
            <Array as="points">
              <mxPoint x="250" y="330" />
              <mxPoint x="250" y="698" />
            </Array>
          </mxGeometry>
        </mxCell>
        <mxCell id="9qI0Hi1YXG1QtXbabamx-67" value="" style="endArrow=open;startArrow=none;endFill=0;startFill=0;endSize=8;html=1;verticalAlign=bottom;labelBackgroundColor=none;strokeWidth=1;rounded=0;" parent="1" source="9qI0Hi1YXG1QtXbabamx-16" target="9qI0Hi1YXG1QtXbabamx-20" edge="1">
          <mxGeometry width="160" relative="1" as="geometry">
            <mxPoint x="390" y="500" as="sourcePoint" />
            <mxPoint x="550" y="500" as="targetPoint" />
          </mxGeometry>
        </mxCell>
        <mxCell id="9qI0Hi1YXG1QtXbabamx-73" value="" style="html=1;verticalAlign=bottom;labelBackgroundColor=none;endArrow=open;endFill=0;dashed=1;rounded=0;" parent="1" source="9qI0Hi1YXG1QtXbabamx-40" target="9qI0Hi1YXG1QtXbabamx-12" edge="1">
          <mxGeometry width="160" relative="1" as="geometry">
            <mxPoint x="390" y="500" as="sourcePoint" />
            <mxPoint x="550" y="500" as="targetPoint" />
          </mxGeometry>
        </mxCell>
        <mxCell id="9qI0Hi1YXG1QtXbabamx-74" value="" style="endArrow=block;html=1;rounded=0;align=center;verticalAlign=bottom;endFill=0;labelBackgroundColor=none;endSize=8;" parent="1" source="9qI0Hi1YXG1QtXbabamx-28" target="9qI0Hi1YXG1QtXbabamx-20" edge="1">
          <mxGeometry relative="1" as="geometry">
            <mxPoint x="390" y="500" as="sourcePoint" />
            <mxPoint x="550" y="500" as="targetPoint" />
            <Array as="points">
              <mxPoint x="550" y="593" />
              <mxPoint x="550" y="754" />
            </Array>
          </mxGeometry>
        </mxCell>
        <mxCell id="9qI0Hi1YXG1QtXbabamx-75" value="" style="resizable=0;html=1;align=center;verticalAlign=top;labelBackgroundColor=none;" parent="9qI0Hi1YXG1QtXbabamx-74" connectable="0" vertex="1">
          <mxGeometry relative="1" as="geometry" />
        </mxCell>
        <mxCell id="9qI0Hi1YXG1QtXbabamx-76" value="" style="endArrow=block;html=1;rounded=0;align=center;verticalAlign=bottom;endFill=0;labelBackgroundColor=none;endSize=8;" parent="1" source="9qI0Hi1YXG1QtXbabamx-32" target="9qI0Hi1YXG1QtXbabamx-20" edge="1">
          <mxGeometry relative="1" as="geometry">
            <mxPoint x="610" y="603" as="sourcePoint" />
            <mxPoint x="500" y="764" as="targetPoint" />
          </mxGeometry>
        </mxCell>
        <mxCell id="9qI0Hi1YXG1QtXbabamx-77" value="" style="resizable=0;html=1;align=center;verticalAlign=top;labelBackgroundColor=none;" parent="9qI0Hi1YXG1QtXbabamx-76" connectable="0" vertex="1">
          <mxGeometry relative="1" as="geometry" />
        </mxCell>
        <mxCell id="9qI0Hi1YXG1QtXbabamx-78" value="" style="endArrow=block;html=1;rounded=0;align=center;verticalAlign=bottom;endFill=0;labelBackgroundColor=none;endSize=8;" parent="1" source="9qI0Hi1YXG1QtXbabamx-36" target="9qI0Hi1YXG1QtXbabamx-20" edge="1">
          <mxGeometry relative="1" as="geometry">
            <mxPoint x="610" y="765" as="sourcePoint" />
            <mxPoint x="500" y="764" as="targetPoint" />
            <Array as="points">
              <mxPoint x="550" y="923" />
              <mxPoint x="550" y="754" />
            </Array>
          </mxGeometry>
        </mxCell>
        <mxCell id="9qI0Hi1YXG1QtXbabamx-79" value="" style="resizable=0;html=1;align=center;verticalAlign=top;labelBackgroundColor=none;" parent="9qI0Hi1YXG1QtXbabamx-78" connectable="0" vertex="1">
          <mxGeometry relative="1" as="geometry" />
        </mxCell>
        <mxCell id="9qI0Hi1YXG1QtXbabamx-82" value="" style="html=1;verticalAlign=bottom;labelBackgroundColor=none;endArrow=open;endFill=0;dashed=1;rounded=0;entryX=0.5;entryY=0;entryDx=0;entryDy=0;" parent="1" source="9qI0Hi1YXG1QtXbabamx-24" target="9qI0Hi1YXG1QtXbabamx-37" edge="1">
          <mxGeometry width="160" relative="1" as="geometry">
            <mxPoint x="610" y="339" as="sourcePoint" />
            <mxPoint x="507" y="340" as="targetPoint" />
          </mxGeometry>
        </mxCell>
        <mxCell id="9qI0Hi1YXG1QtXbabamx-84" value="" style="endArrow=block;startArrow=none;endFill=0;startFill=0;endSize=8;html=1;verticalAlign=bottom;dashed=1;labelBackgroundColor=none;rounded=0;entryX=0.5;entryY=0;entryDx=0;entryDy=0;" parent="1" source="9qI0Hi1YXG1QtXbabamx-20" target="9qI0Hi1YXG1QtXbabamx-54" edge="1">
          <mxGeometry width="160" relative="1" as="geometry">
            <mxPoint x="390" y="660" as="sourcePoint" />
            <mxPoint x="550" y="660" as="targetPoint" />
          </mxGeometry>
        </mxCell>
        <mxCell id="9qI0Hi1YXG1QtXbabamx-85" value="" style="html=1;verticalAlign=bottom;labelBackgroundColor=none;endArrow=open;endFill=0;dashed=1;rounded=0;entryX=0.5;entryY=0;entryDx=0;entryDy=0;" parent="1" source="9qI0Hi1YXG1QtXbabamx-12" target="9qI0Hi1YXG1QtXbabamx-17" edge="1">
          <mxGeometry width="160" relative="1" as="geometry">
            <mxPoint x="610" y="339" as="sourcePoint" />
            <mxPoint x="507" y="340" as="targetPoint" />
          </mxGeometry>
        </mxCell>
      </root>
    </mxGraphModel>
  </diagram>
</mxfile>
